<?xml version="1.0" standalone="no"?>
<!DOCTYPE svg PUBLIC "-//W3C//DTD SVG 20010904//EN"
 "http://www.w3.org/TR/2001/REC-SVG-20010904/DTD/svg10.dtd">
<svg version="1.0" xmlns="http://www.w3.org/2000/svg"
 width="250.000000pt" height="250.000000pt" viewBox="0 0 250.000000 250.000000"
 preserveAspectRatio="xMidYMid meet">
<metadata>
Created by potrace 1.11, written by Peter Selinger 2001-2013
</metadata>
<g transform="translate(0.000000,250.000000) scale(0.100000,-0.100000)"
fill="#000000" stroke="none">
<path d="M1065 2485 c-196 -30 -411 -120 -562 -234 -366 -276 -557 -737 -488
-1181 22 -144 50 -233 115 -366 70 -144 149 -253 263 -360 323 -306 770 -415
1207 -294 106 29 303 128 397 199 44 33 116 98 159 144 306 323 415 770 294
1207 -29 106 -128 303 -199 397 -74 99 -203 222 -299 286 -94 63 -258 140
-352 167 -173 48 -371 61 -535 35z m945 -1270 l0 -745 -100 0 -100 0 0 293 c0
160 5 427 10 591 6 164 9 301 7 303 -2 2 -112 -263 -244 -589 l-240 -593 -78
0 -78 0 -240 593 c-132 325 -242 591 -243 589 -2 -2 1 -120 6 -263 5 -142 10
-409 10 -591 l0 -333 -100 0 -100 0 0 745 0 745 745 0 745 0 0 -745z"/>
<path d="M859 1763 c106 -268 304 -759 307 -762 2 -2 4 179 4 402 l0 407 -165
0 -165 0 19 -47z"/>
<path d="M1360 1398 l1 -413 164 410 c91 225 165 411 165 412 0 2 -74 3 -165
3 l-165 0 0 -412z"/>
</g>
</svg>
