<svg width="325" height="216" viewBox="0 0 325 216" fill="none" xmlns="http://www.w3.org/2000/svg">
<rect width="325" height="216" fill="#FFFF00"/>
<circle cx="285" cy="187" r="25" fill="#F207B4"/>
<circle cx="224" cy="76" r="25" fill="#37BDEA"/>
<circle cx="133" cy="161" r="25" fill="#32B834"/>
<circle cx="300" cy="33" r="25" fill="#32B834"/>
<circle cx="70" cy="33" r="25" fill="#F207B4"/>
<circle cx="33" cy="191" r="25" fill="#37BDEA"/>
<path d="M19.2089 83.75H27.6789C33.1056 83.75 37.1572 85.4733 39.8339 88.92C42.5106 92.3667 43.8489 97.5733 43.8489 104.54C43.8489 108.243 43.3356 111.635 42.3089 114.715C41.3189 117.795 39.7239 120.288 37.5239 122.195C35.3239 124.065 32.5189 125 29.1089 125H19.2089V83.75ZM28.3939 118.565C31.1806 118.565 33.1056 117.373 34.1689 114.99C35.2689 112.57 35.8189 109.6 35.8189 106.08V104.21C35.8189 101.68 35.6539 99.4433 35.3239 97.5C35.0306 95.52 34.3156 93.815 33.1789 92.385C32.0789 90.9183 30.4106 90.185 28.1739 90.185H27.2389V118.565H28.3939ZM46.473 125L55.163 84.245L66.658 83.75L75.568 124.67L66.768 125L65.283 116.145H55.438L53.678 125H46.473ZM56.923 109.545H63.798L60.003 89.8L56.923 109.545ZM99.2597 125.33L87.2147 99.535V124.67L80.0097 125V84.08L88.4247 83.75L99.0947 108.28V84.41L105.915 83.75V124.67L99.2597 125.33ZM124.853 125.77C120.123 125.77 116.786 123.625 114.843 119.335C112.936 115.045 111.983 109.765 111.983 103.495C111.983 100.122 112.423 96.8767 113.303 93.76C114.183 90.6433 115.594 88.0767 117.538 86.06C119.518 84.0067 122.011 82.98 125.018 82.98C127.328 82.98 129.344 83.695 131.068 85.125C132.828 86.555 134.166 88.425 135.083 90.735C136.036 93.0083 136.513 95.3917 136.513 97.885L128.703 98.27C128.703 96.62 128.428 94.75 127.878 92.66C127.328 90.5333 126.228 89.47 124.578 89.47C122.854 89.47 121.663 90.845 121.003 93.595C120.343 96.345 120.013 99.645 120.013 103.495C120.013 108.262 120.379 112.093 121.113 114.99C121.846 117.85 123.258 119.28 125.348 119.28C126.814 119.28 127.859 118.418 128.483 116.695C129.106 114.935 129.509 112.808 129.693 110.315L136.568 110.975C136.568 113.615 136.128 116.072 135.248 118.345C134.368 120.582 133.048 122.378 131.288 123.735C129.528 125.092 127.383 125.77 124.853 125.77ZM142.368 125V83.75H163.323L162.663 90.185H150.453V100.03H159.143L159.088 106.96H150.453V118.565H163.763L163.103 125H142.368ZM168.955 83.75H174.125C178.268 83.75 181.568 83.9333 184.025 84.3C186.482 84.63 188.645 85.6933 190.515 87.49C192.422 89.2867 193.375 92.165 193.375 96.125C193.375 99.7183 192.568 102.45 190.955 104.32C189.378 106.153 187.417 107.363 185.07 107.95C182.76 108.5 180.083 108.775 177.04 108.775V124.67L168.955 125.33V83.75ZM178.47 102.23C180.597 102.23 182.265 101.79 183.475 100.91C184.722 100.03 185.345 98.4167 185.345 96.07C185.345 93.76 184.777 92.2017 183.64 91.395C182.503 90.5883 180.707 90.185 178.25 90.185H177.095V102.23H178.47ZM195.091 125L203.781 84.245L215.276 83.75L224.186 124.67L215.386 125L213.901 116.145H204.056L202.296 125H195.091ZM205.541 109.545H212.416L208.621 89.8L205.541 109.545ZM239.793 106.905H236.658V124.67L228.628 125.33V84.08L238.418 83.75C243.148 83.75 246.851 84.7033 249.528 86.61C252.204 88.48 253.543 91.3583 253.543 95.245C253.543 97.8117 253.029 99.92 252.003 101.57C251.013 103.22 249.564 104.595 247.658 105.695L251.343 114.66L255.083 123.57L247.163 125.715L239.793 106.905ZM239.408 100.965C241.314 100.965 242.799 100.58 243.863 99.81C244.963 99.0033 245.513 97.5 245.513 95.3C245.513 91.89 243.826 90.185 240.453 90.185H236.658V100.965H239.408ZM265.061 125.33V90.185H256.646L257.251 83.75H281.451L280.791 90.185H273.091V124.67L265.061 125.33ZM291.932 125.33V108.665L282.032 83.75H290.887L296.552 100.91L302.657 83.75H309.587L300.072 107.73V124.67L291.932 125.33Z" fill="#FF0000"/>
</svg>
