<svg width="325" height="216" viewBox="0 0 325 216" fill="none" xmlns="http://www.w3.org/2000/svg">
<rect width="325" height="216" fill="#FBFFFB"/>
<path d="M51.3555 42.0195C51.3555 43.6914 51.0742 45.1523 50.5117 46.4023C49.9492 47.6445 49.1523 48.5938 48.1211 49.25C47.0898 49.9062 45.8867 50.2344 44.5117 50.2344C43.168 50.2344 41.9766 49.9062 40.9375 49.25C39.8984 48.5859 39.0898 47.6445 38.5117 46.4258C37.9414 45.1992 37.6484 43.7812 37.6328 42.1719V40.9414C37.6328 39.3008 37.918 37.8516 38.4883 36.5938C39.0586 35.3359 39.8633 34.375 40.9023 33.7109C41.9492 33.0391 43.1445 32.7031 44.4883 32.7031C45.8555 32.7031 47.0586 33.0352 48.0977 33.6992C49.1445 34.3555 49.9492 35.3125 50.5117 36.5703C51.0742 37.8203 51.3555 39.2773 51.3555 40.9414V42.0195ZM49.1172 40.918C49.1172 38.8945 48.7109 37.3438 47.8984 36.2656C47.0859 35.1797 45.9492 34.6367 44.4883 34.6367C43.0664 34.6367 41.9453 35.1797 41.125 36.2656C40.3125 37.3438 39.8945 38.8438 39.8711 40.7656V42.0195C39.8711 43.9805 40.2812 45.5234 41.1016 46.6484C41.9297 47.7656 43.0664 48.3242 44.5117 48.3242C45.9648 48.3242 47.0898 47.7969 47.8867 46.7422C48.6836 45.6797 49.0938 44.1602 49.1172 42.1836V40.918ZM45.3438 71.0977H41.3359V78H39.0742V60.9375H44.7227C46.6445 60.9375 48.1211 61.375 49.1523 62.25C50.1914 63.125 50.7109 64.3984 50.7109 66.0703C50.7109 67.1328 50.4219 68.0586 49.8438 68.8477C49.2734 69.6367 48.4766 70.2266 47.4531 70.6172L51.4609 77.8594V78H49.0469L45.3438 71.0977ZM41.3359 69.2578H44.793C45.9102 69.2578 46.7969 68.9688 47.4531 68.3906C48.1172 67.8125 48.4492 67.0391 48.4492 66.0703C48.4492 65.0156 48.1328 64.207 47.5 63.6445C46.875 63.082 45.9688 62.7969 44.7812 62.7891H41.3359V69.2578ZM45.625 106H43.375V88.9375H45.625V106ZM50.8984 131.762C50.3203 132.59 49.5117 133.211 48.4727 133.625C47.4414 134.031 46.2383 134.234 44.8633 134.234C43.4727 134.234 42.2383 133.91 41.1602 133.262C40.082 132.605 39.2461 131.676 38.6523 130.473C38.0664 129.27 37.7656 127.875 37.75 126.289V124.801C37.75 122.23 38.3477 120.238 39.543 118.824C40.7461 117.41 42.4336 116.703 44.6055 116.703C46.3867 116.703 47.8203 117.16 48.9062 118.074C49.9922 118.98 50.6562 120.27 50.8984 121.941H48.6484C48.2266 119.684 46.8828 118.555 44.6172 118.555C43.1094 118.555 41.9648 119.086 41.1836 120.148C40.4102 121.203 40.0195 122.734 40.0117 124.742V126.137C40.0117 128.051 40.4492 129.574 41.3242 130.707C42.1992 131.832 43.3828 132.395 44.875 132.395C45.7188 132.395 46.457 132.301 47.0898 132.113C47.7227 131.926 48.2461 131.609 48.6602 131.164V127.332H44.7109V125.504H50.8984V131.762ZM45.625 162H43.375V144.938H45.625V162ZM51.3555 182.02C51.3555 183.691 51.0742 185.152 50.5117 186.402C49.9492 187.645 49.1523 188.594 48.1211 189.25C47.0898 189.906 45.8867 190.234 44.5117 190.234C43.168 190.234 41.9766 189.906 40.9375 189.25C39.8984 188.586 39.0898 187.645 38.5117 186.426C37.9414 185.199 37.6484 183.781 37.6328 182.172V180.941C37.6328 179.301 37.918 177.852 38.4883 176.594C39.0586 175.336 39.8633 174.375 40.9023 173.711C41.9492 173.039 43.1445 172.703 44.4883 172.703C45.8555 172.703 47.0586 173.035 48.0977 173.699C49.1445 174.355 49.9492 175.312 50.5117 176.57C51.0742 177.82 51.3555 179.277 51.3555 180.941V182.02ZM49.1172 180.918C49.1172 178.895 48.7109 177.344 47.8984 176.266C47.0859 175.18 45.9492 174.637 44.4883 174.637C43.0664 174.637 41.9453 175.18 41.125 176.266C40.3125 177.344 39.8945 178.844 39.8711 180.766V182.02C39.8711 183.98 40.2812 185.523 41.1016 186.648C41.9297 187.766 43.0664 188.324 44.5117 188.324C45.9648 188.324 47.0898 187.797 47.8867 186.742C48.6836 185.68 49.0938 184.16 49.1172 182.184V180.918Z" fill="black"/>
<path d="M145.355 42.0195C145.355 43.6914 145.074 45.1523 144.512 46.4023C143.949 47.6445 143.152 48.5938 142.121 49.25C141.09 49.9062 139.887 50.2344 138.512 50.2344C137.168 50.2344 135.977 49.9062 134.938 49.25C133.898 48.5859 133.09 47.6445 132.512 46.4258C131.941 45.1992 131.648 43.7812 131.633 42.1719V40.9414C131.633 39.3008 131.918 37.8516 132.488 36.5938C133.059 35.3359 133.863 34.375 134.902 33.7109C135.949 33.0391 137.145 32.7031 138.488 32.7031C139.855 32.7031 141.059 33.0352 142.098 33.6992C143.145 34.3555 143.949 35.3125 144.512 36.5703C145.074 37.8203 145.355 39.2773 145.355 40.9414V42.0195ZM143.117 40.918C143.117 38.8945 142.711 37.3438 141.898 36.2656C141.086 35.1797 139.949 34.6367 138.488 34.6367C137.066 34.6367 135.945 35.1797 135.125 36.2656C134.312 37.3438 133.895 38.8438 133.871 40.7656V42.0195C133.871 43.9805 134.281 45.5234 135.102 46.6484C135.93 47.7656 137.066 48.3242 138.512 48.3242C139.965 48.3242 141.09 47.7969 141.887 46.7422C142.684 45.6797 143.094 44.1602 143.117 42.1836V40.918ZM139.344 71.0977H135.336V78H133.074V60.9375H138.723C140.645 60.9375 142.121 61.375 143.152 62.25C144.191 63.125 144.711 64.3984 144.711 66.0703C144.711 67.1328 144.422 68.0586 143.844 68.8477C143.273 69.6367 142.477 70.2266 141.453 70.6172L145.461 77.8594V78H143.047L139.344 71.0977ZM135.336 69.2578H138.793C139.91 69.2578 140.797 68.9688 141.453 68.3906C142.117 67.8125 142.449 67.0391 142.449 66.0703C142.449 65.0156 142.133 64.207 141.5 63.6445C140.875 63.082 139.969 62.7969 138.781 62.7891H135.336V69.2578ZM139.625 106H137.375V88.9375H139.625V106ZM144.898 131.762C144.32 132.59 143.512 133.211 142.473 133.625C141.441 134.031 140.238 134.234 138.863 134.234C137.473 134.234 136.238 133.91 135.16 133.262C134.082 132.605 133.246 131.676 132.652 130.473C132.066 129.27 131.766 127.875 131.75 126.289V124.801C131.75 122.23 132.348 120.238 133.543 118.824C134.746 117.41 136.434 116.703 138.605 116.703C140.387 116.703 141.82 117.16 142.906 118.074C143.992 118.98 144.656 120.27 144.898 121.941H142.648C142.227 119.684 140.883 118.555 138.617 118.555C137.109 118.555 135.965 119.086 135.184 120.148C134.41 121.203 134.02 122.734 134.012 124.742V126.137C134.012 128.051 134.449 129.574 135.324 130.707C136.199 131.832 137.383 132.395 138.875 132.395C139.719 132.395 140.457 132.301 141.09 132.113C141.723 131.926 142.246 131.609 142.66 131.164V127.332H138.711V125.504H144.898V131.762ZM139.625 162H137.375V144.938H139.625V162ZM145.355 182.02C145.355 183.691 145.074 185.152 144.512 186.402C143.949 187.645 143.152 188.594 142.121 189.25C141.09 189.906 139.887 190.234 138.512 190.234C137.168 190.234 135.977 189.906 134.938 189.25C133.898 188.586 133.09 187.645 132.512 186.426C131.941 185.199 131.648 183.781 131.633 182.172V180.941C131.633 179.301 131.918 177.852 132.488 176.594C133.059 175.336 133.863 174.375 134.902 173.711C135.949 173.039 137.145 172.703 138.488 172.703C139.855 172.703 141.059 173.035 142.098 173.699C143.145 174.355 143.949 175.312 144.512 176.57C145.074 177.82 145.355 179.277 145.355 180.941V182.02ZM143.117 180.918C143.117 178.895 142.711 177.344 141.898 176.266C141.086 175.18 139.949 174.637 138.488 174.637C137.066 174.637 135.945 175.18 135.125 176.266C134.312 177.344 133.895 178.844 133.871 180.766V182.02C133.871 183.98 134.281 185.523 135.102 186.648C135.93 187.766 137.066 188.324 138.512 188.324C139.965 188.324 141.09 187.797 141.887 186.742C142.684 185.68 143.094 184.16 143.117 182.184V180.918Z" fill="black"/>
<path d="M193.355 24.0195C193.355 25.6914 193.074 27.1523 192.512 28.4023C191.949 29.6445 191.152 30.5938 190.121 31.25C189.09 31.9062 187.887 32.2344 186.512 32.2344C185.168 32.2344 183.977 31.9062 182.938 31.25C181.898 30.5859 181.09 29.6445 180.512 28.4258C179.941 27.1992 179.648 25.7812 179.633 24.1719V22.9414C179.633 21.3008 179.918 19.8516 180.488 18.5938C181.059 17.3359 181.863 16.375 182.902 15.7109C183.949 15.0391 185.145 14.7031 186.488 14.7031C187.855 14.7031 189.059 15.0352 190.098 15.6992C191.145 16.3555 191.949 17.3125 192.512 18.5703C193.074 19.8203 193.355 21.2773 193.355 22.9414V24.0195ZM191.117 22.918C191.117 20.8945 190.711 19.3438 189.898 18.2656C189.086 17.1797 187.949 16.6367 186.488 16.6367C185.066 16.6367 183.945 17.1797 183.125 18.2656C182.312 19.3438 181.895 20.8438 181.871 22.7656V24.0195C181.871 25.9805 182.281 27.5234 183.102 28.6484C183.93 29.7656 185.066 30.3242 186.512 30.3242C187.965 30.3242 189.09 29.7969 189.887 28.7422C190.684 27.6797 191.094 26.1602 191.117 24.1836V22.918ZM187.344 53.0977H183.336V60H181.074V42.9375H186.723C188.645 42.9375 190.121 43.375 191.152 44.25C192.191 45.125 192.711 46.3984 192.711 48.0703C192.711 49.1328 192.422 50.0586 191.844 50.8477C191.273 51.6367 190.477 52.2266 189.453 52.6172L193.461 59.8594V60H191.047L187.344 53.0977ZM183.336 51.2578H186.793C187.91 51.2578 188.797 50.9688 189.453 50.3906C190.117 49.8125 190.449 49.0391 190.449 48.0703C190.449 47.0156 190.133 46.207 189.5 45.6445C188.875 45.082 187.969 44.7969 186.781 44.7891H183.336V51.2578ZM187.625 88H185.375V70.9375H187.625V88ZM192.898 113.762C192.32 114.59 191.512 115.211 190.473 115.625C189.441 116.031 188.238 116.234 186.863 116.234C185.473 116.234 184.238 115.91 183.16 115.262C182.082 114.605 181.246 113.676 180.652 112.473C180.066 111.27 179.766 109.875 179.75 108.289V106.801C179.75 104.23 180.348 102.238 181.543 100.824C182.746 99.4102 184.434 98.7031 186.605 98.7031C188.387 98.7031 189.82 99.1602 190.906 100.074C191.992 100.98 192.656 102.27 192.898 103.941H190.648C190.227 101.684 188.883 100.555 186.617 100.555C185.109 100.555 183.965 101.086 183.184 102.148C182.41 103.203 182.02 104.734 182.012 106.742V108.137C182.012 110.051 182.449 111.574 183.324 112.707C184.199 113.832 185.383 114.395 186.875 114.395C187.719 114.395 188.457 114.301 189.09 114.113C189.723 113.926 190.246 113.609 190.66 113.164V109.332H186.711V107.504H192.898V113.762ZM187.625 144H185.375V126.938H187.625V144ZM193.355 164.02C193.355 165.691 193.074 167.152 192.512 168.402C191.949 169.645 191.152 170.594 190.121 171.25C189.09 171.906 187.887 172.234 186.512 172.234C185.168 172.234 183.977 171.906 182.938 171.25C181.898 170.586 181.09 169.645 180.512 168.426C179.941 167.199 179.648 165.781 179.633 164.172V162.941C179.633 161.301 179.918 159.852 180.488 158.594C181.059 157.336 181.863 156.375 182.902 155.711C183.949 155.039 185.145 154.703 186.488 154.703C187.855 154.703 189.059 155.035 190.098 155.699C191.145 156.355 191.949 157.312 192.512 158.57C193.074 159.82 193.355 161.277 193.355 162.941V164.02ZM191.117 162.918C191.117 160.895 190.711 159.344 189.898 158.266C189.086 157.18 187.949 156.637 186.488 156.637C185.066 156.637 183.945 157.18 183.125 158.266C182.312 159.344 181.895 160.844 181.871 162.766V164.02C181.871 165.98 182.281 167.523 183.102 168.648C183.93 169.766 185.066 170.324 186.512 170.324C187.965 170.324 189.09 169.797 189.887 168.742C190.684 167.68 191.094 166.16 191.117 164.184V162.918Z" fill="black"/>
<path d="M238.355 42.0195C238.355 43.6914 238.074 45.1523 237.512 46.4023C236.949 47.6445 236.152 48.5938 235.121 49.25C234.09 49.9062 232.887 50.2344 231.512 50.2344C230.168 50.2344 228.977 49.9062 227.938 49.25C226.898 48.5859 226.09 47.6445 225.512 46.4258C224.941 45.1992 224.648 43.7812 224.633 42.1719V40.9414C224.633 39.3008 224.918 37.8516 225.488 36.5938C226.059 35.3359 226.863 34.375 227.902 33.7109C228.949 33.0391 230.145 32.7031 231.488 32.7031C232.855 32.7031 234.059 33.0352 235.098 33.6992C236.145 34.3555 236.949 35.3125 237.512 36.5703C238.074 37.8203 238.355 39.2773 238.355 40.9414V42.0195ZM236.117 40.918C236.117 38.8945 235.711 37.3438 234.898 36.2656C234.086 35.1797 232.949 34.6367 231.488 34.6367C230.066 34.6367 228.945 35.1797 228.125 36.2656C227.312 37.3438 226.895 38.8438 226.871 40.7656V42.0195C226.871 43.9805 227.281 45.5234 228.102 46.6484C228.93 47.7656 230.066 48.3242 231.512 48.3242C232.965 48.3242 234.09 47.7969 234.887 46.7422C235.684 45.6797 236.094 44.1602 236.117 42.1836V40.918ZM232.344 71.0977H228.336V78H226.074V60.9375H231.723C233.645 60.9375 235.121 61.375 236.152 62.25C237.191 63.125 237.711 64.3984 237.711 66.0703C237.711 67.1328 237.422 68.0586 236.844 68.8477C236.273 69.6367 235.477 70.2266 234.453 70.6172L238.461 77.8594V78H236.047L232.344 71.0977ZM228.336 69.2578H231.793C232.91 69.2578 233.797 68.9688 234.453 68.3906C235.117 67.8125 235.449 67.0391 235.449 66.0703C235.449 65.0156 235.133 64.207 234.5 63.6445C233.875 63.082 232.969 62.7969 231.781 62.7891H228.336V69.2578ZM232.625 106H230.375V88.9375H232.625V106ZM237.898 131.762C237.32 132.59 236.512 133.211 235.473 133.625C234.441 134.031 233.238 134.234 231.863 134.234C230.473 134.234 229.238 133.91 228.16 133.262C227.082 132.605 226.246 131.676 225.652 130.473C225.066 129.27 224.766 127.875 224.75 126.289V124.801C224.75 122.23 225.348 120.238 226.543 118.824C227.746 117.41 229.434 116.703 231.605 116.703C233.387 116.703 234.82 117.16 235.906 118.074C236.992 118.98 237.656 120.27 237.898 121.941H235.648C235.227 119.684 233.883 118.555 231.617 118.555C230.109 118.555 228.965 119.086 228.184 120.148C227.41 121.203 227.02 122.734 227.012 124.742V126.137C227.012 128.051 227.449 129.574 228.324 130.707C229.199 131.832 230.383 132.395 231.875 132.395C232.719 132.395 233.457 132.301 234.09 132.113C234.723 131.926 235.246 131.609 235.66 131.164V127.332H231.711V125.504H237.898V131.762ZM232.625 162H230.375V144.938H232.625V162ZM238.355 182.02C238.355 183.691 238.074 185.152 237.512 186.402C236.949 187.645 236.152 188.594 235.121 189.25C234.09 189.906 232.887 190.234 231.512 190.234C230.168 190.234 228.977 189.906 227.938 189.25C226.898 188.586 226.09 187.645 225.512 186.426C224.941 185.199 224.648 183.781 224.633 182.172V180.941C224.633 179.301 224.918 177.852 225.488 176.594C226.059 175.336 226.863 174.375 227.902 173.711C228.949 173.039 230.145 172.703 231.488 172.703C232.855 172.703 234.059 173.035 235.098 173.699C236.145 174.355 236.949 175.312 237.512 176.57C238.074 177.82 238.355 179.277 238.355 180.941V182.02ZM236.117 180.918C236.117 178.895 235.711 177.344 234.898 176.266C234.086 175.18 232.949 174.637 231.488 174.637C230.066 174.637 228.945 175.18 228.125 176.266C227.312 177.344 226.895 178.844 226.871 180.766V182.02C226.871 183.98 227.281 185.523 228.102 186.648C228.93 187.766 230.066 188.324 231.512 188.324C232.965 188.324 234.09 187.797 234.887 186.742C235.684 185.68 236.094 184.16 236.117 182.184V180.918Z" fill="black"/>
<path d="M286.355 24.0195C286.355 25.6914 286.074 27.1523 285.512 28.4023C284.949 29.6445 284.152 30.5938 283.121 31.25C282.09 31.9062 280.887 32.2344 279.512 32.2344C278.168 32.2344 276.977 31.9062 275.938 31.25C274.898 30.5859 274.09 29.6445 273.512 28.4258C272.941 27.1992 272.648 25.7812 272.633 24.1719V22.9414C272.633 21.3008 272.918 19.8516 273.488 18.5938C274.059 17.3359 274.863 16.375 275.902 15.7109C276.949 15.0391 278.145 14.7031 279.488 14.7031C280.855 14.7031 282.059 15.0352 283.098 15.6992C284.145 16.3555 284.949 17.3125 285.512 18.5703C286.074 19.8203 286.355 21.2773 286.355 22.9414V24.0195ZM284.117 22.918C284.117 20.8945 283.711 19.3438 282.898 18.2656C282.086 17.1797 280.949 16.6367 279.488 16.6367C278.066 16.6367 276.945 17.1797 276.125 18.2656C275.312 19.3438 274.895 20.8438 274.871 22.7656V24.0195C274.871 25.9805 275.281 27.5234 276.102 28.6484C276.93 29.7656 278.066 30.3242 279.512 30.3242C280.965 30.3242 282.09 29.7969 282.887 28.7422C283.684 27.6797 284.094 26.1602 284.117 24.1836V22.918ZM280.344 53.0977H276.336V60H274.074V42.9375H279.723C281.645 42.9375 283.121 43.375 284.152 44.25C285.191 45.125 285.711 46.3984 285.711 48.0703C285.711 49.1328 285.422 50.0586 284.844 50.8477C284.273 51.6367 283.477 52.2266 282.453 52.6172L286.461 59.8594V60H284.047L280.344 53.0977ZM276.336 51.2578H279.793C280.91 51.2578 281.797 50.9688 282.453 50.3906C283.117 49.8125 283.449 49.0391 283.449 48.0703C283.449 47.0156 283.133 46.207 282.5 45.6445C281.875 45.082 280.969 44.7969 279.781 44.7891H276.336V51.2578ZM280.625 88H278.375V70.9375H280.625V88ZM285.898 113.762C285.32 114.59 284.512 115.211 283.473 115.625C282.441 116.031 281.238 116.234 279.863 116.234C278.473 116.234 277.238 115.91 276.16 115.262C275.082 114.605 274.246 113.676 273.652 112.473C273.066 111.27 272.766 109.875 272.75 108.289V106.801C272.75 104.23 273.348 102.238 274.543 100.824C275.746 99.4102 277.434 98.7031 279.605 98.7031C281.387 98.7031 282.82 99.1602 283.906 100.074C284.992 100.98 285.656 102.27 285.898 103.941H283.648C283.227 101.684 281.883 100.555 279.617 100.555C278.109 100.555 276.965 101.086 276.184 102.148C275.41 103.203 275.02 104.734 275.012 106.742V108.137C275.012 110.051 275.449 111.574 276.324 112.707C277.199 113.832 278.383 114.395 279.875 114.395C280.719 114.395 281.457 114.301 282.09 114.113C282.723 113.926 283.246 113.609 283.66 113.164V109.332H279.711V107.504H285.898V113.762ZM280.625 144H278.375V126.938H280.625V144ZM286.355 164.02C286.355 165.691 286.074 167.152 285.512 168.402C284.949 169.645 284.152 170.594 283.121 171.25C282.09 171.906 280.887 172.234 279.512 172.234C278.168 172.234 276.977 171.906 275.938 171.25C274.898 170.586 274.09 169.645 273.512 168.426C272.941 167.199 272.648 165.781 272.633 164.172V162.941C272.633 161.301 272.918 159.852 273.488 158.594C274.059 157.336 274.863 156.375 275.902 155.711C276.949 155.039 278.145 154.703 279.488 154.703C280.855 154.703 282.059 155.035 283.098 155.699C284.145 156.355 284.949 157.312 285.512 158.57C286.074 159.82 286.355 161.277 286.355 162.941V164.02ZM284.117 162.918C284.117 160.895 283.711 159.344 282.898 158.266C282.086 157.18 280.949 156.637 279.488 156.637C278.066 156.637 276.945 157.18 276.125 158.266C275.312 159.344 274.895 160.844 274.871 162.766V164.02C274.871 165.98 275.281 167.523 276.102 168.648C276.93 169.766 278.066 170.324 279.512 170.324C280.965 170.324 282.09 169.797 282.887 168.742C283.684 167.68 284.094 166.16 284.117 164.184V162.918Z" fill="black"/>
<path d="M97.3555 24.0195C97.3555 25.6914 97.0742 27.1523 96.5117 28.4023C95.9492 29.6445 95.1523 30.5938 94.1211 31.25C93.0898 31.9062 91.8867 32.2344 90.5117 32.2344C89.168 32.2344 87.9766 31.9062 86.9375 31.25C85.8984 30.5859 85.0898 29.6445 84.5117 28.4258C83.9414 27.1992 83.6484 25.7812 83.6328 24.1719V22.9414C83.6328 21.3008 83.918 19.8516 84.4883 18.5938C85.0586 17.3359 85.8633 16.375 86.9023 15.7109C87.9492 15.0391 89.1445 14.7031 90.4883 14.7031C91.8555 14.7031 93.0586 15.0352 94.0977 15.6992C95.1445 16.3555 95.9492 17.3125 96.5117 18.5703C97.0742 19.8203 97.3555 21.2773 97.3555 22.9414V24.0195ZM95.1172 22.918C95.1172 20.8945 94.7109 19.3438 93.8984 18.2656C93.0859 17.1797 91.9492 16.6367 90.4883 16.6367C89.0664 16.6367 87.9453 17.1797 87.125 18.2656C86.3125 19.3438 85.8945 20.8438 85.8711 22.7656V24.0195C85.8711 25.9805 86.2812 27.5234 87.1016 28.6484C87.9297 29.7656 89.0664 30.3242 90.5117 30.3242C91.9648 30.3242 93.0898 29.7969 93.8867 28.7422C94.6836 27.6797 95.0938 26.1602 95.1172 24.1836V22.918ZM91.3438 53.0977H87.3359V60H85.0742V42.9375H90.7227C92.6445 42.9375 94.1211 43.375 95.1523 44.25C96.1914 45.125 96.7109 46.3984 96.7109 48.0703C96.7109 49.1328 96.4219 50.0586 95.8438 50.8477C95.2734 51.6367 94.4766 52.2266 93.4531 52.6172L97.4609 59.8594V60H95.0469L91.3438 53.0977ZM87.3359 51.2578H90.793C91.9102 51.2578 92.7969 50.9688 93.4531 50.3906C94.1172 49.8125 94.4492 49.0391 94.4492 48.0703C94.4492 47.0156 94.1328 46.207 93.5 45.6445C92.875 45.082 91.9688 44.7969 90.7812 44.7891H87.3359V51.2578ZM91.625 88H89.375V70.9375H91.625V88ZM96.8984 113.762C96.3203 114.59 95.5117 115.211 94.4727 115.625C93.4414 116.031 92.2383 116.234 90.8633 116.234C89.4727 116.234 88.2383 115.91 87.1602 115.262C86.082 114.605 85.2461 113.676 84.6523 112.473C84.0664 111.27 83.7656 109.875 83.75 108.289V106.801C83.75 104.23 84.3477 102.238 85.543 100.824C86.7461 99.4102 88.4336 98.7031 90.6055 98.7031C92.3867 98.7031 93.8203 99.1602 94.9062 100.074C95.9922 100.98 96.6562 102.27 96.8984 103.941H94.6484C94.2266 101.684 92.8828 100.555 90.6172 100.555C89.1094 100.555 87.9648 101.086 87.1836 102.148C86.4102 103.203 86.0195 104.734 86.0117 106.742V108.137C86.0117 110.051 86.4492 111.574 87.3242 112.707C88.1992 113.832 89.3828 114.395 90.875 114.395C91.7188 114.395 92.457 114.301 93.0898 114.113C93.7227 113.926 94.2461 113.609 94.6602 113.164V109.332H90.7109V107.504H96.8984V113.762ZM91.625 144H89.375V126.938H91.625V144ZM97.3555 164.02C97.3555 165.691 97.0742 167.152 96.5117 168.402C95.9492 169.645 95.1523 170.594 94.1211 171.25C93.0898 171.906 91.8867 172.234 90.5117 172.234C89.168 172.234 87.9766 171.906 86.9375 171.25C85.8984 170.586 85.0898 169.645 84.5117 168.426C83.9414 167.199 83.6484 165.781 83.6328 164.172V162.941C83.6328 161.301 83.918 159.852 84.4883 158.594C85.0586 157.336 85.8633 156.375 86.9023 155.711C87.9492 155.039 89.1445 154.703 90.4883 154.703C91.8555 154.703 93.0586 155.035 94.0977 155.699C95.1445 156.355 95.9492 157.312 96.5117 158.57C97.0742 159.82 97.3555 161.277 97.3555 162.941V164.02ZM95.1172 162.918C95.1172 160.895 94.7109 159.344 93.8984 158.266C93.0859 157.18 91.9492 156.637 90.4883 156.637C89.0664 156.637 87.9453 157.18 87.125 158.266C86.3125 159.344 85.8945 160.844 85.8711 162.766V164.02C85.8711 165.98 86.2812 167.523 87.1016 168.648C87.9297 169.766 89.0664 170.324 90.5117 170.324C91.9648 170.324 93.0898 169.797 93.8867 168.742C94.6836 167.68 95.0938 166.16 95.1172 164.184V162.918Z" fill="black"/>
</svg>
