<svg width="325" height="216" viewBox="0 0 325 216" fill="none" xmlns="http://www.w3.org/2000/svg">
<rect width="325" height="216" fill="#FBD090"/>
<path d="M105.873 98.04C105.585 98.408 105.305 98.688 105.033 98.88C104.761 99.056 104.433 99.144 104.049 99.144C103.681 99.144 103.313 99.024 102.945 98.784C102.577 98.544 102.161 98.28 101.697 97.992C101.249 97.704 100.729 97.44 100.137 97.2C99.5446 96.96 98.8486 96.84 98.0486 96.84C97.3126 96.84 96.6646 96.944 96.1046 97.152C95.5606 97.36 95.1046 97.648 94.7366 98.016C94.3686 98.384 94.0886 98.816 93.8966 99.312C93.7206 99.808 93.6326 100.352 93.6326 100.944C93.6326 101.584 93.8086 102.12 94.1606 102.552C94.5286 102.984 95.0086 103.368 95.6006 103.704C96.2086 104.024 96.8886 104.32 97.6406 104.592C98.3926 104.864 99.1606 105.16 99.9446 105.48C100.745 105.8 101.521 106.168 102.273 106.584C103.041 107 103.721 107.52 104.313 108.144C104.921 108.768 105.401 109.52 105.753 110.4C106.121 111.28 106.305 112.336 106.305 113.568C106.305 115.328 106.001 116.984 105.393 118.536C104.785 120.088 103.913 121.448 102.777 122.616C101.641 123.768 100.257 124.688 98.6246 125.376C97.0086 126.048 95.1846 126.384 93.1526 126.384C92.1446 126.384 91.1286 126.272 90.1046 126.048C89.0966 125.824 88.1206 125.512 87.1766 125.112C86.2486 124.696 85.3846 124.208 84.5846 123.648C83.7846 123.088 83.1046 122.464 82.5446 121.776L85.3286 118.128C85.5526 117.856 85.8246 117.632 86.1446 117.456C86.4806 117.28 86.8166 117.192 87.1526 117.192C87.6006 117.192 88.0326 117.352 88.4486 117.672C88.8806 117.976 89.3526 118.32 89.8646 118.704C90.3766 119.072 90.9686 119.416 91.6406 119.736C92.3286 120.04 93.1686 120.192 94.1606 120.192C95.6166 120.192 96.7366 119.8 97.5206 119.016C98.3206 118.216 98.7206 117.04 98.7206 115.488C98.7206 114.768 98.5366 114.176 98.1686 113.712C97.8166 113.248 97.3446 112.856 96.7526 112.536C96.1766 112.216 95.5126 111.936 94.7606 111.696C94.0086 111.44 93.2406 111.168 92.4566 110.88C91.6726 110.592 90.9046 110.256 90.1526 109.872C89.4006 109.472 88.7286 108.96 88.1366 108.336C87.5606 107.696 87.0886 106.92 86.7206 106.008C86.3686 105.08 86.1926 103.944 86.1926 102.6C86.1926 101.048 86.4806 99.56 87.0566 98.136C87.6486 96.696 88.4886 95.424 89.5766 94.32C90.6646 93.216 91.9846 92.336 93.5366 91.68C95.0886 91.024 96.8326 90.696 98.7686 90.696C99.7606 90.696 100.721 90.8 101.649 91.008C102.593 91.216 103.473 91.504 104.289 91.872C105.105 92.24 105.849 92.68 106.521 93.192C107.193 93.688 107.761 94.232 108.225 94.824L105.873 98.04ZM133.047 101.112L130.023 126H126.231C124.471 126 123.591 125.184 123.591 123.552V121.968C122.391 123.472 121.103 124.584 119.727 125.304C118.351 126.024 116.919 126.384 115.431 126.384C114.391 126.384 113.447 126.176 112.599 125.76C111.751 125.344 111.039 124.736 110.463 123.936C109.903 123.12 109.503 122.128 109.263 120.96C109.023 119.776 108.999 118.424 109.191 116.904L111.063 101.112H118.503L116.631 116.904C116.551 117.576 116.519 118.144 116.535 118.608C116.567 119.072 116.655 119.448 116.799 119.736C116.943 120.008 117.135 120.208 117.375 120.336C117.631 120.448 117.943 120.504 118.311 120.504C118.823 120.504 119.351 120.36 119.895 120.072C120.439 119.768 120.967 119.352 121.479 118.824C121.991 118.28 122.463 117.624 122.895 116.856C123.343 116.088 123.711 115.232 123.999 114.288L125.607 101.112H133.047ZM142.708 119.856C143.172 120.24 143.692 120.512 144.268 120.672C144.844 120.832 145.388 120.912 145.9 120.912C146.764 120.912 147.556 120.624 148.276 120.048C149.012 119.472 149.644 118.72 150.172 117.792C150.7 116.848 151.108 115.776 151.396 114.576C151.7 113.376 151.852 112.152 151.852 110.904C151.852 109.32 151.62 108.168 151.156 107.448C150.692 106.728 150.076 106.368 149.308 106.368C148.78 106.368 148.228 106.576 147.652 106.992C147.092 107.392 146.548 107.944 146.02 108.648C145.492 109.336 144.996 110.152 144.532 111.096C144.084 112.024 143.708 113.016 143.404 114.072L142.708 119.856ZM144.532 105.024C145.636 103.68 146.836 102.632 148.132 101.88C149.444 101.112 150.828 100.728 152.284 100.728C153.308 100.728 154.244 100.912 155.092 101.28C155.94 101.632 156.668 102.192 157.276 102.96C157.9 103.728 158.38 104.712 158.716 105.912C159.068 107.096 159.244 108.512 159.244 110.16C159.244 112.336 158.908 114.408 158.236 116.376C157.58 118.328 156.692 120.048 155.572 121.536C154.452 123.024 153.156 124.208 151.684 125.088C150.228 125.952 148.7 126.384 147.1 126.384C145.868 126.384 144.788 126.152 143.86 125.688C142.932 125.208 142.132 124.584 141.46 123.816L141.388 124.056C141.164 124.728 140.876 125.224 140.524 125.544C140.172 125.848 139.596 126 138.796 126H134.716L139.084 90.072H146.38L144.532 105.024ZM174.9 120.12C175.86 120.12 176.668 119.984 177.324 119.712C177.98 119.424 178.508 119.032 178.908 118.536C179.324 118.024 179.62 117.432 179.796 116.76C179.988 116.088 180.084 115.352 180.084 114.552C180.084 114.024 180.012 113.544 179.868 113.112C179.74 112.68 179.508 112.32 179.172 112.032C178.852 111.728 178.42 111.496 177.876 111.336C177.348 111.16 176.692 111.072 175.908 111.072H170.868L169.764 120.12H174.9ZM172.596 96.864L171.492 105.888H175.236C176.116 105.888 176.908 105.8 177.612 105.624C178.316 105.448 178.916 105.152 179.412 104.736C179.924 104.304 180.316 103.736 180.588 103.032C180.86 102.328 180.996 101.456 180.996 100.416C180.996 99.12 180.652 98.208 179.964 97.68C179.292 97.136 178.244 96.864 176.82 96.864H172.596ZM177.54 91.032C179.572 91.032 181.308 91.224 182.748 91.608C184.204 91.992 185.388 92.544 186.3 93.264C187.228 93.968 187.9 94.824 188.316 95.832C188.748 96.824 188.964 97.928 188.964 99.144C188.964 100.104 188.836 101.032 188.58 101.928C188.34 102.808 187.948 103.624 187.404 104.376C186.876 105.128 186.188 105.808 185.34 106.416C184.508 107.024 183.492 107.544 182.292 107.976C184.18 108.488 185.572 109.288 186.468 110.376C187.364 111.448 187.812 112.808 187.812 114.456C187.812 116.072 187.5 117.584 186.876 118.992C186.268 120.384 185.38 121.6 184.212 122.64C183.044 123.68 181.62 124.504 179.94 125.112C178.276 125.704 176.388 126 174.276 126H161.22L165.54 91.032H177.54ZM214.843 101.112L211.819 126H208.027C206.267 126 205.387 125.184 205.387 123.552V121.968C204.187 123.472 202.899 124.584 201.523 125.304C200.147 126.024 198.715 126.384 197.227 126.384C196.187 126.384 195.243 126.176 194.395 125.76C193.547 125.344 192.835 124.736 192.259 123.936C191.699 123.12 191.299 122.128 191.059 120.96C190.819 119.776 190.795 118.424 190.987 116.904L192.859 101.112H200.299L198.427 116.904C198.347 117.576 198.315 118.144 198.331 118.608C198.363 119.072 198.451 119.448 198.595 119.736C198.739 120.008 198.931 120.208 199.171 120.336C199.427 120.448 199.739 120.504 200.107 120.504C200.619 120.504 201.147 120.36 201.691 120.072C202.235 119.768 202.763 119.352 203.275 118.824C203.787 118.28 204.259 117.624 204.691 116.856C205.139 116.088 205.507 115.232 205.795 114.288L207.403 101.112H214.843ZM233.601 106.344C233.377 106.632 233.169 106.84 232.977 106.968C232.785 107.096 232.529 107.16 232.209 107.16C231.889 107.16 231.569 107.088 231.249 106.944C230.945 106.8 230.609 106.64 230.241 106.464C229.889 106.272 229.481 106.104 229.017 105.96C228.569 105.816 228.049 105.744 227.457 105.744C226.353 105.744 225.561 105.96 225.081 106.392C224.617 106.808 224.385 107.352 224.385 108.024C224.385 108.456 224.513 108.824 224.769 109.128C225.041 109.432 225.393 109.704 225.825 109.944C226.257 110.184 226.745 110.408 227.289 110.616C227.849 110.808 228.417 111.032 228.993 111.288C229.569 111.528 230.129 111.808 230.673 112.128C231.233 112.448 231.729 112.84 232.161 113.304C232.593 113.768 232.937 114.32 233.193 114.96C233.465 115.6 233.601 116.36 233.601 117.24C233.601 118.488 233.353 119.672 232.857 120.792C232.361 121.896 231.649 122.864 230.721 123.696C229.793 124.512 228.665 125.168 227.337 125.664C226.025 126.144 224.545 126.384 222.897 126.384C222.113 126.384 221.337 126.304 220.569 126.144C219.801 125.984 219.073 125.768 218.385 125.496C217.713 125.224 217.097 124.904 216.537 124.536C215.977 124.152 215.521 123.744 215.169 123.312L216.993 120.576C217.217 120.256 217.473 120.008 217.761 119.832C218.065 119.64 218.433 119.544 218.865 119.544C219.265 119.544 219.609 119.64 219.897 119.832C220.185 120.024 220.497 120.232 220.833 120.456C221.169 120.68 221.569 120.888 222.033 121.08C222.497 121.272 223.105 121.368 223.857 121.368C224.913 121.368 225.697 121.136 226.209 120.672C226.721 120.192 226.977 119.632 226.977 118.992C226.977 118.496 226.841 118.088 226.569 117.768C226.313 117.448 225.969 117.176 225.537 116.952C225.105 116.712 224.617 116.504 224.073 116.328C223.529 116.136 222.969 115.928 222.393 115.704C221.817 115.48 221.257 115.224 220.713 114.936C220.169 114.632 219.681 114.256 219.249 113.808C218.817 113.36 218.465 112.808 218.193 112.152C217.937 111.496 217.809 110.704 217.809 109.776C217.809 108.624 218.017 107.504 218.433 106.416C218.865 105.328 219.497 104.368 220.329 103.536C221.177 102.688 222.225 102.008 223.473 101.496C224.721 100.984 226.177 100.728 227.841 100.728C229.505 100.728 230.985 101.016 232.281 101.592C233.593 102.168 234.673 102.872 235.521 103.704L233.601 106.344ZM238.432 120.624C238.432 120.512 238.432 120.376 238.432 120.216C238.432 120.056 238.44 119.832 238.456 119.544C238.488 119.24 238.528 118.848 238.576 118.368C238.64 117.872 238.72 117.224 238.816 116.424L240.088 106.248H238.096C237.76 106.248 237.48 106.128 237.256 105.888C237.032 105.632 236.96 105.264 237.04 104.784L237.376 101.88L241.144 101.112L243.232 95.04C243.504 94.272 244.048 93.888 244.864 93.888H248.896L247.984 101.16H253.552L252.928 106.248H247.36L246.16 116.016C246.08 116.672 246.016 117.192 245.968 117.576C245.92 117.944 245.88 118.232 245.848 118.44C245.832 118.632 245.824 118.768 245.824 118.848C245.824 118.912 245.824 118.952 245.824 118.968C245.824 119.432 245.928 119.824 246.136 120.144C246.36 120.448 246.704 120.6 247.168 120.6C247.424 120.6 247.632 120.576 247.792 120.528C247.968 120.464 248.12 120.4 248.248 120.336C248.376 120.256 248.496 120.192 248.608 120.144C248.72 120.08 248.848 120.048 248.992 120.048C249.216 120.048 249.376 120.104 249.472 120.216C249.584 120.312 249.696 120.472 249.808 120.696L251.44 124.224C250.448 124.944 249.384 125.488 248.248 125.856C247.112 126.208 245.968 126.384 244.816 126.384C243.856 126.384 242.992 126.256 242.224 126C241.456 125.728 240.792 125.344 240.232 124.848C239.688 124.336 239.256 123.728 238.936 123.024C238.632 122.32 238.464 121.52 238.432 120.624ZM266.98 105.792C265.748 105.792 264.668 106.288 263.74 107.28C262.812 108.256 262.124 109.6 261.676 111.312C263.212 111.072 264.46 110.816 265.42 110.544C266.38 110.272 267.124 109.984 267.652 109.68C268.18 109.36 268.532 109.024 268.708 108.672C268.9 108.32 268.996 107.936 268.996 107.52C268.996 107.104 268.836 106.712 268.516 106.344C268.196 105.976 267.684 105.792 266.98 105.792ZM275.188 121.392C274.308 122.256 273.444 123.008 272.596 123.648C271.764 124.272 270.9 124.792 270.004 125.208C269.124 125.608 268.18 125.904 267.172 126.096C266.18 126.288 265.092 126.384 263.908 126.384C262.436 126.384 261.084 126.136 259.852 125.64C258.62 125.128 257.556 124.416 256.66 123.504C255.78 122.576 255.092 121.464 254.596 120.168C254.116 118.872 253.876 117.432 253.876 115.848C253.876 114.52 254.02 113.224 254.308 111.96C254.612 110.696 255.036 109.512 255.58 108.408C256.14 107.288 256.82 106.264 257.62 105.336C258.42 104.392 259.316 103.584 260.308 102.912C261.316 102.24 262.412 101.72 263.596 101.352C264.796 100.968 266.068 100.776 267.412 100.776C268.74 100.776 269.916 100.968 270.94 101.352C271.98 101.736 272.852 102.24 273.556 102.864C274.26 103.472 274.796 104.16 275.164 104.928C275.532 105.696 275.716 106.464 275.716 107.232C275.716 108.368 275.492 109.408 275.044 110.352C274.596 111.28 273.812 112.112 272.692 112.848C271.588 113.584 270.092 114.208 268.204 114.72C266.332 115.232 263.972 115.632 261.124 115.92C261.156 117.616 261.524 118.856 262.228 119.64C262.948 120.424 264.004 120.816 265.396 120.816C266.052 120.816 266.62 120.76 267.1 120.648C267.58 120.536 267.996 120.392 268.348 120.216C268.716 120.04 269.044 119.856 269.332 119.664C269.62 119.472 269.892 119.288 270.148 119.112C270.42 118.936 270.7 118.792 270.988 118.68C271.276 118.568 271.604 118.512 271.972 118.512C272.212 118.512 272.444 118.576 272.668 118.704C272.892 118.816 273.092 118.968 273.268 119.16L275.188 121.392ZM286.762 106.248C287.37 105.176 288.018 104.256 288.706 103.488C289.394 102.72 290.098 102.128 290.818 101.712C291.554 101.28 292.298 101.04 293.05 100.992C293.818 100.928 294.586 101.072 295.354 101.424L294.01 108.312C293.098 107.928 292.242 107.752 291.442 107.784C290.658 107.816 289.93 108.088 289.258 108.6C288.602 109.112 288.002 109.88 287.458 110.904C286.93 111.928 286.474 113.24 286.09 114.84L284.746 126H277.45L280.474 101.112H284.314C285.082 101.112 285.682 101.296 286.114 101.664C286.546 102.016 286.762 102.6 286.762 103.416V106.248ZM311.976 106.344C311.752 106.632 311.544 106.84 311.352 106.968C311.16 107.096 310.904 107.16 310.584 107.16C310.264 107.16 309.944 107.088 309.624 106.944C309.32 106.8 308.984 106.64 308.616 106.464C308.264 106.272 307.856 106.104 307.392 105.96C306.944 105.816 306.424 105.744 305.832 105.744C304.728 105.744 303.936 105.96 303.456 106.392C302.992 106.808 302.76 107.352 302.76 108.024C302.76 108.456 302.888 108.824 303.144 109.128C303.416 109.432 303.768 109.704 304.2 109.944C304.632 110.184 305.12 110.408 305.664 110.616C306.224 110.808 306.792 111.032 307.368 111.288C307.944 111.528 308.504 111.808 309.048 112.128C309.608 112.448 310.104 112.84 310.536 113.304C310.968 113.768 311.312 114.32 311.568 114.96C311.84 115.6 311.976 116.36 311.976 117.24C311.976 118.488 311.728 119.672 311.232 120.792C310.736 121.896 310.024 122.864 309.096 123.696C308.168 124.512 307.04 125.168 305.712 125.664C304.4 126.144 302.92 126.384 301.272 126.384C300.488 126.384 299.712 126.304 298.944 126.144C298.176 125.984 297.448 125.768 296.76 125.496C296.088 125.224 295.472 124.904 294.912 124.536C294.352 124.152 293.896 123.744 293.544 123.312L295.368 120.576C295.592 120.256 295.848 120.008 296.136 119.832C296.44 119.64 296.808 119.544 297.24 119.544C297.64 119.544 297.984 119.64 298.272 119.832C298.56 120.024 298.872 120.232 299.208 120.456C299.544 120.68 299.944 120.888 300.408 121.08C300.872 121.272 301.48 121.368 302.232 121.368C303.288 121.368 304.072 121.136 304.584 120.672C305.096 120.192 305.352 119.632 305.352 118.992C305.352 118.496 305.216 118.088 304.944 117.768C304.688 117.448 304.344 117.176 303.912 116.952C303.48 116.712 302.992 116.504 302.448 116.328C301.904 116.136 301.344 115.928 300.768 115.704C300.192 115.48 299.632 115.224 299.088 114.936C298.544 114.632 298.056 114.256 297.624 113.808C297.192 113.36 296.84 112.808 296.568 112.152C296.312 111.496 296.184 110.704 296.184 109.776C296.184 108.624 296.392 107.504 296.808 106.416C297.24 105.328 297.872 104.368 298.704 103.536C299.552 102.688 300.6 102.008 301.848 101.496C303.096 100.984 304.552 100.728 306.216 100.728C307.88 100.728 309.36 101.016 310.656 101.592C311.968 102.168 313.048 102.872 313.896 103.704L311.976 106.344Z" fill="#004643"/>
<g clip-path="url(#clip0)">
<path fill-rule="evenodd" clip-rule="evenodd" d="M75.9503 83.022C74.8451 71.5342 65.0374 76.4998 56.3348 81.3612C25.1159 98.8004 20.5549 121.222 26.8137 121.222C32.8645 121.222 35.5702 118.506 39.1133 114.949L39.4769 114.584C36.8592 117.214 38.1034 121.222 41.9687 121.222C45.8365 121.222 51.5001 116.655 53.572 114.579C51.9146 116.24 51.9144 121.222 56.3348 121.222C60.7552 121.222 65.5463 118.731 69.8722 109.319C70.032 108.972 70.1935 108.622 70.3562 108.27C73.4752 101.521 76.9967 93.9 75.9503 83.022ZM54.0189 97.6413C50.1802 101.684 45.6793 103.637 43.9658 102.004C42.2523 100.371 43.9751 95.7695 47.8139 91.7266C51.6526 87.6838 56.1535 85.7305 57.867 87.3638C59.5803 88.9971 57.8576 93.5985 54.0189 97.6413ZM58.0557 101.727C59.7692 103.361 64.2701 101.407 68.1088 97.3645C71.9476 93.3216 73.6703 88.7202 71.9569 87.0869C70.2435 85.4536 65.7425 87.4069 61.9038 91.4497C58.0651 95.4926 56.3422 100.094 58.0557 101.727Z" fill="#004643"/>
<path d="M31.7867 133C42.1623 133 50.5734 131.703 50.5734 130.104C50.5734 128.505 42.1623 127.208 31.7867 127.208C21.4111 127.208 13 128.505 13 130.104C13 131.703 21.4111 133 31.7867 133Z" fill="#004643"/>
</g>
<defs>
<clipPath id="clip0">
<rect width="64" height="57" fill="white" transform="translate(13 76)"/>
</clipPath>
</defs>
</svg>
